# xmcd
#
# Track frame offsets: 
#        150
#        16676
#        33399
#        44911
#        59069
#        75970
#        91487
#        103386
#        116381
#        128092
#
# Disc length: 1866 seconds
#
# Revision: 2
# Processed by: cddbd v1.5.2PL0 Copyright (c) Steve Scherf et al.
# Submitted via: ExactAudioCopy v1.2
#
DISCID=8007480a
DTITLE=Garth Brooks - The Anthology Part 1, The First Five Years 1990
DYEAR=1990
DGENRE=Country
TTITLE0=The Thunder Rolls (Day-Write)
TTITLE1=The Thunder Rolls (Master)
TTITLE2=Two Of A Kind, Workin' On A Full House (Master)
TTITLE3=Victim Of The Game (Master)
TTITLE4=Unanswered Prayers (Day-Write)
TTITLE5=Unanswered Prayers (Master)
TTITLE6=Same Old Story (Tony Arata Day-Write)
TTITLE7=Same Old Story (Master)
TTITLE8=Which One Of Them (Demo)
TTITLE9=Which One Of Them (Master)
EXTD=
EXTT0=
EXTT1=
EXTT2=
EXTT3=
EXTT4=
EXTT5=
EXTT6=
EXTT7=
EXTT8=
EXTT9=
PLAYORDER=
